<svg width="524" height="523" xmlns="http://www.w3.org/2000/svg" xmlns:xlink="http://www.w3.org/1999/xlink" xml:space="preserve" overflow="hidden"><g transform="translate(-1938 -976)"><path d="M305.083 315.979 43.5834 315.979 43.5834 141.646 305.083 141.646 305.083 315.979ZM315.979 108.958 32.6875 108.958C20.7021 108.958 10.8958 118.765 10.8958 130.75L10.8958 326.875C10.8958 338.861 20.7021 348.667 32.6875 348.667L141.646 348.667 141.646 381.354 92.6146 381.354 92.6146 414.042 256.052 414.042 256.052 381.354 207.021 381.354 207.021 348.667 315.979 348.667C327.965 348.667 337.771 338.861 337.771 326.875L337.771 130.75C337.771 118.765 327.965 108.958 315.979 108.958Z" fill="#4472C4" transform="matrix(1.00191 0 0 1 1938 976)"/><path d="M490.313 163.438 381.354 163.438 381.354 130.75 490.313 130.75 490.313 163.438ZM490.313 217.917 381.354 217.917 381.354 185.229 490.313 185.229 490.313 217.917ZM435.833 381.354C426.572 381.354 419.49 374.272 419.49 365.011 419.49 355.749 426.572 348.667 435.833 348.667 445.095 348.667 452.177 355.749 452.177 365.011 452.177 374.272 445.095 381.354 435.833 381.354ZM490.313 108.958 381.354 108.958C369.369 108.958 359.563 118.765 359.563 130.75L359.563 392.25C359.563 404.236 369.369 414.042 381.354 414.042L490.313 414.042C502.298 414.042 512.104 404.236 512.104 392.25L512.104 130.75C512.104 118.765 502.298 108.958 490.313 108.958Z" fill="#4472C4" transform="matrix(1.00191 0 0 1 1938 976)"/></g></svg>