<svg width="524" height="523" xmlns="http://www.w3.org/2000/svg" xmlns:xlink="http://www.w3.org/1999/xlink" xml:space="preserve" overflow="hidden"><g transform="translate(-1938 -976)"><path d="M414.042 98.0625C414.042 122.133 345.747 141.646 261.5 141.646 177.254 141.646 108.958 122.133 108.958 98.0625 108.958 73.9921 177.254 54.4792 261.5 54.4792 345.747 54.4792 414.042 73.9921 414.042 98.0625Z" fill="#4472C4" transform="matrix(1.00191 0 0 1 1938 976)"/><path d="M370.458 207.021C363.921 207.021 359.563 202.663 359.563 196.125 359.563 189.588 363.921 185.229 370.458 185.229 376.996 185.229 381.354 189.588 381.354 196.125 381.354 202.663 376.996 207.021 370.458 207.021ZM261.5 163.438C177.602 163.438 108.958 143.825 108.958 119.854L108.958 207.021C108.958 230.992 177.602 250.604 261.5 250.604 345.398 250.604 414.042 230.992 414.042 207.021L414.042 119.854C414.042 143.825 345.398 163.438 261.5 163.438Z" fill="#4472C4" transform="matrix(1.00191 0 0 1 1938 976)"/><path d="M370.458 315.979C363.921 315.979 359.563 311.621 359.563 305.083 359.563 298.546 363.921 294.188 370.458 294.188 376.996 294.188 381.354 298.546 381.354 305.083 381.354 311.621 376.996 315.979 370.458 315.979ZM261.5 272.396C177.602 272.396 108.958 252.783 108.958 228.813L108.958 315.979C108.958 339.95 177.602 359.563 261.5 359.563 345.398 359.563 414.042 339.95 414.042 315.979L414.042 228.813C414.042 252.783 345.398 272.396 261.5 272.396Z" fill="#4472C4" transform="matrix(1.00191 0 0 1 1938 976)"/><path d="M370.458 424.938C363.921 424.938 359.563 420.579 359.563 414.042 359.563 407.504 363.921 403.146 370.458 403.146 376.996 403.146 381.354 407.504 381.354 414.042 381.354 420.579 376.996 424.938 370.458 424.938ZM261.5 381.354C177.602 381.354 108.958 361.742 108.958 337.771L108.958 424.938C108.958 448.909 177.602 468.521 261.5 468.521 345.398 468.521 414.042 448.909 414.042 424.938L414.042 337.771C414.042 361.742 345.398 381.354 261.5 381.354Z" fill="#4472C4" transform="matrix(1.00191 0 0 1 1938 976)"/></g></svg>