<svg width="524" height="523" xmlns="http://www.w3.org/2000/svg" xmlns:xlink="http://www.w3.org/1999/xlink" xml:space="preserve" overflow="hidden"><g transform="translate(-1938 -976)"><path d="M465.797 411.863 397.698 343.764C388.437 334.502 375.906 331.233 363.921 333.413L339.95 309.442C361.197 282.202 373.727 247.336 373.727 210.29 373.727 120.399 300.18 46.8521 210.29 46.8521 120.399 46.8521 46.8521 120.399 46.8521 210.29 46.8521 300.18 120.399 373.727 210.29 373.727 247.336 373.727 281.657 361.197 309.442 339.95L333.413 363.921C331.233 375.906 334.502 388.437 343.764 397.698L411.863 465.797C419.49 473.424 429.296 477.238 439.102 477.238 448.909 477.238 458.715 473.424 466.342 465.797 480.506 450.543 480.506 426.572 465.797 411.863ZM209.745 340.495C137.832 340.495 78.9948 281.657 78.9948 209.745 78.9948 137.832 137.832 78.9948 209.745 78.9948 281.657 78.9948 340.495 137.832 340.495 209.745 340.495 281.657 281.657 340.495 209.745 340.495Z" fill="#4472C4" transform="matrix(1.00191 0 0 1 1938 976)"/></g></svg>